<svg viewBox="0 0 255 278" width="255" height="278" xmlns="http://www.w3.org/2000/svg" fill-rule="evenodd" clip-rule="evenodd" stroke-linecap="round" stroke-linejoin="round" stroke-miterlimit="1"><path fill="none" d="M0 0h255v277.5H0z"/><path d="M141.186 39.039h-27l.481-4.809c.051-.512.361-.962.821-1.192l1.511-.757 1.687-18.019-2.297-1.533a2.25 2.25 0 0 1-.997-2.012l.438-7.014a.75.75 0 0 1 .748-.703h3.608a.75.75 0 0 1 .75.75v4.131c0 .414.336.75.75.75h1.763a.75.75 0 0 0 .75-.75V3.75a.75.75 0 0 1 .75-.75h5.362a.75.75 0 0 1 .75.75v4.131c0 .414.336.75.75.75h1.875a.75.75 0 0 0 .75-.75V3.75a.75.75 0 0 1 .75-.75h3.608a.75.75 0 0 1 .749.703l.438 7.014c.05.8-.33 1.567-.997 2.012l-2.298 1.533 1.688 18.019 1.511.757c.46.23.77.68.821 1.192l.48 4.809zm-12-21.398a.376.376 0 0 1-.375-.375v-1.503a.375.375 0 0 0-.375-.375h-1.5a.376.376 0 0 0-.375.375v1.503a.375.375 0 0 1-.375.375h-1.5a.375.375 0 0 0-.375.375v1.502a.375.375 0 0 0 .375.375h1.5c.207 0 .375.168.375.375v6.007c0 .208.168.375.375.375h1.5a.374.374 0 0 0 .375-.375v-6.007c0-.207.168-.375.375-.375h1.5a.37.37 0 0 0 .265-.11.37.37 0 0 0 .11-.265v-1.502a.37.37 0 0 0-.11-.265.37.37 0 0 0-.265-.11h-1.5zM72.11 36.21c-.598 6.375-.983 12.776-1.828 19.111a9.38 9.38 0 0 1-4.883 6.772l-9.039 4.524-.861-.425c-5.612-2.719-12.406-5.01-13.112-11.303L40.61 36.21l15.75-5.632 15.75 5.632zm-30.297.765l1.693 17.798c.195 1.733.448 1.858.645 2.262 2.241 4.572 7.523 6.037 12.131 8.287l.076.037c5.675-2.84 12.061-4.588 12.89-10.798.737-5.72 1.112-11.462 1.631-17.253l.03-.332-14.549-5.202-14.547 5.201zm22.072-.119l4.616 1.651-1.526 16.048c-.462 4.479-6.16 6.055-10.615 8.285l-5.789-2.898 13.314-23.086zm-3.231-1.155L47.646 58.256a5.774 5.774 0 0 1-1.889-3.597c-.555-5.38-1.026-10.768-1.538-16.152l12.141-4.341 4.294 1.535z" fill="#fff"/><g opacity=".25" fill="none" stroke="#fff" stroke-width="2.25" stroke-dasharray="4.5,9,0,0"><path d="M221.386 144.504c-3.274 11.567-8.051 21.456-14.33 29.667M141.331 214.138c15.936-2.725 29.794-7.632 40.715-15.619M77.682 33.954c12.472-7.295 24.631-11.52 36.504-12.935M145.831 21.769c20.544 4.383 25.596 7.249 41.638 18.981M202.238 54.778c10.695 10.515 17.78 24.28 20.559 41.404M127.758 245.044v-.001c0-16.148-10.883-30.268-26.499-34.38-8.587-2.211-17.779-5.525-25.132-10.416M32.824 139.432c3.445 17.523 9.251 25.126 13.739 31.982M33.911 91.432c.698-4.929 6.509-18.734 11.373-25.708"/></g><path d="M122.654 270.513a11.604 11.604 0 0 1-9.177 4.493c-6.415 0-11.623-5.208-11.623-11.623 0-4.308 2.35-8.072 5.836-10.079-.112-.323.162-.825 1.134-1.313 1.782-.87 3.827-.878 5.783-.876 1.498.006 3.4-.293 3.872.259a.736.736 0 0 1 .187.42h18.083c.084-.323.556-.649 1.647-.663l1.401-.012c.746-.003 1.491-.007 2.237-.005 1.889.019 3.889.186 5.463 1.389.279.249.339.599.129.802a11.622 11.622 0 0 1 5.892 10.112c0 6.415-5.208 11.623-11.622 11.623a11.605 11.605 0 0 1-9.203-4.527h-10.039zm19.242-5.82a1.925 1.925 0 0 1 0 3.847 1.925 1.925 0 0 1 0-3.847zm-27.126-3.913v-3.2a.647.647 0 0 0-.646-.646h-1.294a.647.647 0 0 0-.646.646v3.2h-3.233a.65.65 0 0 0-.647.647v1.31a.647.647 0 0 0 .647.646h3.233v3.25a.65.65 0 0 0 .646.647h1.294a.647.647 0 0 0 .646-.647v-3.25h3.233a.65.65 0 0 0 .647-.646v-1.31a.65.65 0 0 0-.647-.647h-3.233zm12.805 1.438a.972.972 0 0 0-1.372 0l-2.113 2.113a.972.972 0 0 0 0 1.372.972.972 0 0 0 1.372 0l2.113-2.113a.972.972 0 0 0 0-1.372zm4.526 0a.97.97 0 0 0-1.371 0l-2.113 2.113a.97.97 0 1 0 1.372 1.372l2.112-2.113a.97.97 0 0 0 0-1.372zm14.355-1.371a1.924 1.924 0 1 1-.001 3.845 1.924 1.924 0 0 1 .001-3.845zm-9.087-.067a1.924 1.924 0 1 1-.001 3.847 1.924 1.924 0 0 1 .001-3.847zm4.56-3.846a1.923 1.923 0 1 1 0 3.846 1.923 1.923 0 0 1 0-3.846zM38.378 97.673a3.92 3.92 0 0 1-.24-4.283 3.917 3.917 0 1 1 2.953 5.849l-2.512 4.352 4.069 2.349a7.833 7.833 0 0 1 2.866 10.698l-1.352 2.342a.428.428 0 0 1-.585.157l-6.04-3.488a.428.428 0 0 1-.157-.585l.569-.985a3.13 3.13 0 0 0 .313-2.377 3.142 3.142 0 0 0-1.454-1.912l-1.561 2.705c-.987 1.76 1.116 4.332 1.116 4.332-3.412 5.908-6.777 11.843-10.234 17.725-2.05 3.366-6.294 5.034-10.045 4.869-2.019-3.166-2.697-7.676-.806-11.134 3.365-5.935 6.822-11.817 10.234-17.725 0 0 3.278.535 4.309-1.2l1.562-2.704a3.147 3.147 0 0 0-2.383-.304 3.131 3.131 0 0 0-1.902 1.46l-.569.985a.425.425 0 0 1-.585.157l-6.04-3.487a.428.428 0 0 1-.157-.585l1.352-2.342a7.834 7.834 0 0 1 10.698-2.866l4.069 2.349 2.512-4.352zm-2.926 11.334l-2.713-1.566-1.566 2.713c-1.004 1.688-3.072 2.668-4.954 2.315l-9.508 16.469c-1.994 3.516.065 8.363.295 8.885.568-.061 5.795-.701 7.843-4.187l9.508-16.468c-1.247-1.454-1.432-3.735-.472-5.448l1.567-2.713zM233.664 106.534l2.061-3.569-2.627-.537a.687.687 0 0 1-.24-1.244l7.575-5.002-.544 9.061a.684.684 0 0 1-1.197.414l-1.779-2.006-2.061 3.569c3.124 1.884 5.002 3.671 5.005 3.674l.343-.594a1.372 1.372 0 0 1 2.375 1.371l-.685 1.188.028.016 1.894-.443c10.453 6.868 8.042 17.068 5.761 22.411a3.43 3.43 0 0 1 2.063 5.021 3.43 3.43 0 0 1-4.684 1.255 3.424 3.424 0 0 1-1.699-2.656l-23.014-2.54-2.243 3.885-2.18-4.409-.054-.02-4.892.315 2.243-3.885-13.706-18.66a3.425 3.425 0 0 1-3.15-.144 3.43 3.43 0 0 1-1.255-4.684 3.43 3.43 0 0 1 5.38-.724c3.486-4.647 11.114-11.835 22.289-6.216l.576 1.905.701-1.215a1.372 1.372 0 0 1 2.375 1.372l-.343.593s2.488.734 5.684 2.498zm11.738 30.566a3.401 3.401 0 0 1 .436-.888c.922-1.533 5.736-10.671-5.58-17.927l-.445-1.829-.666 1.154a1.372 1.372 0 0 1-2.375-1.372l.342-.594c-.004-.001-2.49-.735-5.684-2.497l-9.146 15.841 1.826 3.694-1.122 1.944 22.414 2.474zm-15.159-24.639c-3.124-1.885-5.002-3.671-5.006-3.674l-.342.594a1.373 1.373 0 0 1-2.376-1.371l.666-1.154-1.807.529c-11.941-6.172-17.447 2.566-18.315 4.132a3.43 3.43 0 0 1-.55.821l13.349 18.174 1.122-1.944 4.112-.265 9.147-15.842zm19.452 23.907a2.058 2.058 0 1 0-2.056 3.563 2.058 2.058 0 0 0 2.056-3.563zM201 108.254a2.058 2.058 0 1 1-2.81.753 2.058 2.058 0 0 1 2.81-.753zM199.911 167.596v8.346c5.201 1.468 9.017 6.252 9.017 11.92 0 6.836-5.55 12.385-12.386 12.385-6.835 0-12.385-5.549-12.385-12.385 0-5.661 3.807-10.44 8.999-11.915V167.596h-1.141a1.675 1.675 0 0 1 0-3.349h9.037a1.676 1.676 0 0 1 0 3.349h-1.141zm-1.126 1.126h-4.503v8.078c-5.137 1.044-9.008 5.59-9.008 11.033 0 6.214 5.045 11.259 11.259 11.259s11.26-5.045 11.26-11.259c0-5.443-3.871-9.989-9.008-11.033v-8.078zm7.882 16.843c.041.37 0 1.871 0 2.252 0 5.593-4.541 10.133-10.134 10.133-5.592 0-10.133-4.54-10.133-10.133 0-.381.021-.756.062-1.126 6.889-6.68 14.697 3.676 20.205-1.126zm-5.052-3.378a1.676 1.676 0 0 1 0 3.349 1.676 1.676 0 0 1 0-3.349zm-7.322-3.4a2.264 2.264 0 0 1 0 4.526 2.264 2.264 0 0 1 0-4.526zm6.744-13.443h-9.007a.563.563 0 1 0 0 1.126h9.007a.563.563 0 1 0 0-1.126zM70.967 200.247H49.188v-3.708h1.815v-2.721h2.891l-1.291-1.291v-1.271c0-5.601 4.944-7.57 6.897-10.146 1.953-2.575 1.539-5.209 1.539-5.209s-.342 1.954-1.927 3.825c-1.586 1.872-4.407 1.651-5.432 2.154-1.025.504-2.408 3.116-2.764 3.464-.355.347-.943.573-1.568.473-.626-.1-1.673-1.087-2.095-1.155-.422-.066-.626-.438-.91-.799-.284-.36-.588-1.041-.725-1.331-.138-.291-.44-.955-.296-1.599.144-.644.636-1.246 1.169-1.85.533-.604 6.882-10.7 6.882-10.7l-2.427-4.136h3.73c4.263.048 11.193 1.105 15.391 6.859 6.394 8.761-2.516 14.102-2.516 20.15v1.271l-1.291 1.291h2.892v2.721h1.815v3.708zM200.227 41.342l-5.689.598a.689.689 0 0 1-.532-1.196l5.116-4.607-2.8-6.289a.687.687 0 0 1 .973-.877l5.962 3.443 5.117-4.607a.688.688 0 0 1 1.134.655l-1.432 6.734 5.963 3.442a.69.69 0 0 1-.273 1.281l-6.847.72-1.431 6.734a.689.689 0 0 1-1.302.137l-2.327-5.225-13.857 26.195a2.037 2.037 0 0 1-2.822.813l-.003-.003a2.038 2.038 0 0 1-.708-2.849l15.758-25.099z" fill="#fff"/><path d="M127.81 77.078H87.328v53.128c0 33.194 40.482 42.872 40.482 42.872s40.483-9.678 40.483-42.872V77.078H127.81z" fill="#e37225" fill-rule="nonzero"/><path d="M127.81 77.078H87.328v46.523c0 33.194 40.482 42.872 40.482 42.872s40.483-9.678 40.483-42.872V77.078H127.81z" fill="#fcba16" fill-rule="nonzero"/><path d="M161.724 97.961l.011.002.033.023-.044-.025m-2.296-2.466l-2.189.854c-2.629-.571-5.667-.664-7.55.784a11.288 11.288 0 0 0-2.952 3.369l-1.1.286v2.93l.421.393-1.772-1.002-.834-.134v3.76l1.112 1.248h-.736l-1.41-1.412c-2.289.634-8.187 5.373-13.608 10.257a50.297 50.297 0 0 1-1.165-.901v-2.574l-3.591-.626a.363.363 0 0 1 .01.084c-.509-.478-1.051-1-1.627-1.567l.188-3.03v-2.572l-1.135-.672 1.1-1.102v-2.572l-1.562.914c-1.145-1.553-1.319-3.416-.332-4.47 1.32-1.321 3.01-1.219 4.119-.108l.987.987 3.429-3.433v-2.573l-1.987.478-.022.084-1.24-1.242.25.251a4.845 4.845 0 0 0-6.858 0l-1.203 1.204v-.001a4.275 4.275 0 0 1-6.051 0l-1.015-1.016-9.202 9.21-.733-1.071-1.646.88v2.574l1.016 1.016a4.288 4.288 0 0 1 0 6.057l-3.025-3.029-2.718 2.722-1.914-.657v2.573l9.454 9.464 4.631-4.637V114.9l-2.524-.865a4.263 4.263 0 0 1 5.55.41l1.015 1.017 2.153-2.156.004.003.863-.863v1.727l1.322 1.324 2.476-2.479v1.734c2.958 2.962 4.678 5.017 5.988 6.748-.441.429-.866.848-1.271 1.254-6.777 6.783-9.78 11.822-10.908 15.003l-.579.12v2.703l.002.001c.009.538.126.897.298 1.069.942.943 7.42.268 18.876-11.2l.402-.405c.17.174.345.352.528.535l9.927 9.939.005-.005c.031.032.058.067.09.098a4.614 4.614 0 0 0 6.531 0 4.598 4.598 0 0 0 1.335-3.453l.018-.021v-2.414l-.344.87a4.615 4.615 0 0 0-1.009-1.52c-.032-.032-.067-.058-.099-.089l.003-.003-9.927-9.939a83.652 83.652 0 0 0-.757-.744c4.591-5.173 8.862-10.576 9.462-12.744v-2.059l1.034 1.036 1.322-1.323v-1.729l.863.864s4.186 1.57 6.972-4.004c2.786-5.574 4.986-5.49 5.562-5.083v-2.573c-.365-.272-.862-.494-2.723-.189" fill="#e37225" fill-rule="nonzero"/><path d="M142.418 103.998c-3.249.9-13.763 10.066-19.874 16.183-11.455 11.468-12.13 17.953-11.188 18.896.943.944 7.421.268 18.877-11.199 6.11-6.118 15.266-16.643 16.164-19.896l-3.979-3.984z" fill="#fff" fill-rule="nonzero"/><path d="M144.774 101.652l3.98 3.984-1.322 1.323-3.98-3.984 1.322-1.323z" fill="#fff"/><path d="M149.617 104.772s4.187 1.569 6.972-4.004c2.785-5.574 4.987-5.491 5.563-5.083-1.278-1.138-8.922-3.847-12.462-1.124-3.542 2.723-4.053 6.227-4.053 6.227l3.98 3.984zM129.231 92.613l-3.249-3.252.25.251a4.847 4.847 0 0 0-6.859 0l-1.202 1.204v-.001a4.275 4.275 0 0 1-6.051 0l-1.016-1.017-11.58 11.592 1.016 1.018a4.288 4.288 0 0 1 0 6.057l-3.025-3.029-4.632 4.637 9.453 9.464 4.632-4.637-3.024-3.029a4.277 4.277 0 0 1 6.05 0l1.015 1.018 2.153-2.155.004.003 7.274-7.283-.002-.003 2.152-2.155-.986-.987c-1.647-1.649-2.042-3.93-.908-5.141 1.32-1.321 3.01-1.219 4.119-.109l.987.987 3.429-3.433z" fill="#fff" fill-rule="nonzero"/><path d="M121.304 104.318l1.322 1.323-7.275 7.283-1.322-1.324 7.275-7.282z" fill="#fff"/><path d="M127.645 113.353c-1.528-1.218-3.339-2.806-5.764-5.233l-4.054 4.06c2.334 2.337 3.887 4.1 5.085 5.595a184.085 184.085 0 0 1 4.733-4.422M128.811 114.256a177.459 177.459 0 0 0-4.997 4.672c2.158 2.856 3.218 4.845 6.823 8.54a175.278 175.278 0 0 0 6.296-6.74c-3.472-3.361-5.425-4.447-8.122-6.472M147.716 131.502c-.032-.032-.067-.058-.099-.09l.004-.003-9.653-9.663a178.76 178.76 0 0 1-6.308 6.76l9.431 9.439.004-.004c.031.032.058.067.09.099a4.615 4.615 0 0 0 6.531 0 4.627 4.627 0 0 0 0-6.538" fill="#fff" fill-rule="nonzero"/></svg>