<svg id="solarus-logo" xmlns="http://www.w3.org/2000/svg" width="300px" height="80px" viewBox="0 0 300 80"><style>.st1{fill:#fff}</style><path id="solarus-sun" d="M70.92 2.41c-18.74.12-33.83 15.42-33.7 34.16a33.87 33.87 0 0 0 4.9 17.34h1.94l25.57-25.74c2.34 2.36 5.55-.82 6.48-1.85l-1.6-1.62c-2.23-2.23-4.14 1.18-4.14 1.18L65.5 21s7.6-3.49 11.74.67l3.1 3.12L86 19.06a4.226 4.226 0 0 1 1-4.44 4.17 4.17 0 0 1 5.9-.04l.04.04a4.237 4.237 0 0 1 0 6 4.165 4.165 0 0 1-4.38 1l-5.68 5.71 3.08 3.1c4.14 4.16.66 11.82.66 11.82l-4.9-4.95s3.39-1.92 1.17-4.16l-1.61-1.62c-1 .94-4.18 4.17-1.84 6.53L63.69 53.92h36c9.7-16.03 4.58-36.89-11.46-46.6a33.87 33.87 0 0 0-17.34-4.9l.03-.01z" fill="#ffbc00"/><g id="solarus-letters"><g id="letters-solarus"><path class="st1" d="M21.78 25.95c-4.1-1.4-6.68-2.53-7.74-3.4-.99-.74-1.58-1.9-1.58-3.13-.09-1.62.71-3.15 2.09-4 1.73-.97 3.69-1.43 5.67-1.33 3.59-.04 7.15.72 10.41 2.24l.81-8.84c-1.69-.57-3.41-1-5.17-1.29-2.11-.37-4.24-.55-6.38-.54-5.86 0-10.47 1.25-13.82 3.74S1.03 15.43 1 20c0 3.9 1.09 6.87 3.28 8.91s5.52 3.79 10 5.24c3.37 1.13 5.62 2.23 6.75 3.3 1.05.89 1.66 2.18 1.69 3.55.01 1.61-.86 3.09-2.26 3.87-1.77 1.02-3.8 1.52-5.84 1.43-2.48-.01-4.95-.41-7.3-1.19a20.39 20.39 0 0 1-4.8-2l-.87 9.52c1.53.45 3.51.92 5.94 1.39 2.52.48 5.08.72 7.64.71 5.76 0 10.34-1.27 13.74-3.81 3.37-2.49 5.29-6.49 5.1-10.68 0-3.77-.91-6.71-2.74-8.84s-5.01-3.94-9.55-5.45z"/><path class="st1" d="M153.79 6.5l-15 39h-18.73v-39H109V54l37.92-.07 3.85-10.41h18.72l3.78 10.41h12.16L166.82 6.5h-13.03zm-.14 28.77L160.27 16l6.36 19.25-12.98.02zM217.77 40c-.67-1.85-1.47-3.78-2.4-5.78a6.586 6.586 0 0 0-4.37-3.78c2.86-.42 5.44-1.93 7.22-4.21 1.5-2.05 2.31-4.53 2.3-7.07 0-4.31-1.46-7.49-4.39-9.56s-7.15-3.1-12.68-3.1h-18v47.4h11.08V34.65h3.38c1.61-.1 3.18.53 4.26 1.73 1.07 1.29 1.87 2.79 2.36 4.39l4.73 13.13h11.84L218 40.64l-.23-.64zm-10.68-15a10.412 10.412 0 0 1-5.94 1.46h-4.66v-11.8h4.32c2.19-.14 4.38.34 6.31 1.39a4.986 4.986 0 0 1 2.13 4.52c.11 1.75-.71 3.44-2.16 4.43zM252.28 33.84c0 4.04-.73 7.11-2.19 9.22-1.46 2.11-3.75 3.16-6.86 3.16-3.07 0-5.33-1-6.83-3.06s-2.22-5-2.22-8.91V6.5H223.1v29.85c0 6 1.73 10.57 5.2 13.7 3.47 3.13 8.47 4.69 15 4.66 6.67 0 11.67-1.61 15-4.83 3.33-3.22 5-8.07 5-14.56V6.5h-11.02v27.34zM296.27 31.39c-1.83-2.13-5.01-3.95-9.55-5.44-4.1-1.4-6.68-2.53-7.74-3.4-.99-.74-1.58-1.9-1.58-3.13-.09-1.62.71-3.15 2.09-4 1.73-.97 3.69-1.43 5.67-1.33 3.59-.04 7.14.72 10.4 2.24l.81-8.84c-1.69-.57-3.41-1-5.17-1.29-2.11-.37-4.24-.55-6.38-.54-5.88.01-10.49 1.27-13.82 3.76-3.32 2.47-5.2 6.44-5 10.58 0 3.9 1.1 6.87 3.28 8.91s5.51 3.79 10 5.24c3.37 1.13 5.62 2.23 6.75 3.3a4.8 4.8 0 0 1 1.69 3.5c.01 1.61-.86 3.09-2.26 3.87-1.78 1.02-3.8 1.52-5.85 1.43-2.48-.01-4.94-.41-7.29-1.19a20.82 20.82 0 0 1-4.8-2l-.87 9.52c1.53.45 3.51.92 5.94 1.39 2.52.48 5.08.72 7.64.71 5.76 0 10.34-1.27 13.74-3.81 3.34-2.49 5.22-6.48 5.03-10.64 0-3.76-.9-6.71-2.73-8.84z"/></g><g id="letters-an"><path class="st1" d="M19.53 78.12H15l-1.4-3.87h-7l-1.39 3.87H1l6.78-17.63h4.84l6.91 17.63zm-7-6.93L10.19 64l-2.46 7.19h4.8zM33 73.06V60.49h3.9v17.63h-5l-.15-.28-6.37-12.19v12.47h-3.87V60.49h5.12L33 73.06z"/></g><g id="letters-arpg"><path class="st1" d="M64.73 78.12h-4.52l-1.41-3.88h-7l-1.43 3.87H46.2L53 60.49h4.85l6.88 17.63zm-7-6.93L55.38 64l-2.46 7.15 4.81.04zM70.63 71v7.16h-4.12V60.49h6.7c1.65-.1 3.3.3 4.72 1.15 1.12.82 1.74 2.16 1.63 3.55 0 .94-.29 1.86-.85 2.62-.66.86-1.64 1.42-2.71 1.58.73.2 1.33.72 1.62 1.42.35.74.64 1.46.89 2.15l.11.23 1.87 4.93H76.1l-1.76-4.88c-.18-.6-.48-1.15-.88-1.63-.41-.43-.99-.65-1.58-.61h-1.25zm0-3h1.73c.77.05 1.54-.14 2.21-.54.55-.37.85-.99.81-1.65.1-.7-.2-1.41-.79-1.81-.72-.39-1.54-.57-2.36-.52h-1.6V68zM86.72 71.66v6.45H82.6V60.49H88c1.89-.12 3.78.35 5.39 1.35 1.28.99 1.98 2.55 1.85 4.16.09 1.6-.56 3.15-1.76 4.21a7.372 7.372 0 0 1-4.9 1.47l-1.86-.02zm0-3.08h1.41c.77.07 1.54-.13 2.17-.58.57-.5.86-1.25.79-2 .04-.71-.26-1.39-.8-1.85-.62-.46-1.39-.69-2.16-.65h-1.41v5.08zM101.1 69.34a5.81 5.81 0 0 0 1.64 4.31 5.845 5.845 0 0 0 4.26 1.61c.41.01.81-.03 1.21-.1.29-.06.57-.13.84-.23V71h-3.17v-3h7.14v9.51c-.87.25-1.76.46-2.65.61-1.14.21-2.3.32-3.46.32-2.67.13-5.3-.74-7.37-2.44a8.52 8.52 0 0 1-2.67-6.71c-.15-2.54.86-5.02 2.75-6.73 1.83-1.59 4.37-2.39 7.6-2.39 1.03-.01 2.05.06 3.07.21.79.12 1.56.32 2.3.6v.18l-.27 3.23c-.68-.36-1.41-.63-2.17-.8-.79-.18-1.6-.27-2.41-.27-1.77-.07-3.5.53-4.85 1.68a5.645 5.645 0 0 0-1.79 4.34z"/></g><g id="letters-game"><path class="st1" d="M127.35 69.34a5.576 5.576 0 0 0 5.22 5.92c.24.01.48.01.71 0 .41.01.81-.03 1.21-.1.29-.05.57-.13.84-.23V71h-3.16v-3h7.12v9.51c-.87.25-1.76.46-2.65.61-1.14.21-2.29.32-3.45.32-2.69.14-5.33-.73-7.41-2.44a8.52 8.52 0 0 1-2.67-6.71c-.15-2.54.86-5.02 2.75-6.73 1.83-1.59 4.36-2.39 7.59-2.39 1.03-.01 2.05.06 3.07.21.79.11 1.56.32 2.3.6v.18l-.28 3.23c-.68-.36-1.41-.63-2.16-.8-.79-.18-1.6-.27-2.41-.27-1.77-.07-3.5.53-4.84 1.68a5.602 5.602 0 0 0-1.78 4.34zM159.69 78.12h-4.52l-1.41-3.87h-7l-1.43 3.87h-4.22l6.77-17.62h4.85l6.96 17.62zm-7-6.93L150.35 64l-2.46 7.15 4.8.04zM176.26 60.49h6.2v17.63h-4v-14l-4.7 13.7h-3.66l-4.61-13.73.06 14h-4v-17.6H168l4.07 12.29 4.19-12.29zM197.58 78.12H186V60.49h11.46v3h-7.36v4h6.79v3h-6.79V75h7.48v3.12z"/></g><g id="letters-engine"><path class="st1" d="M219.62 78.12H208V60.49h11.45v3h-7.32v4H219v3h-6.81V75h7.48l-.05 3.12zM234.31 73.06V60.49h3.87v17.63h-5l-.16-.28-6.38-12.19v12.47h-3.86V60.49h5.12l6.41 12.57zM245.29 69.34a5.592 5.592 0 0 0 5.24 5.92c.23.01.46.01.69 0 .41.01.82-.03 1.22-.1.29-.05.57-.13.84-.23V71h-3.18v-3h7.14v9.51c-.87.25-1.76.46-2.65.61-1.14.21-2.29.32-3.45.32-2.69.14-5.34-.73-7.42-2.44a8.507 8.507 0 0 1-2.72-6.68c-.15-2.54.86-5.02 2.75-6.73 1.83-1.59 4.37-2.39 7.6-2.39 1.03-.01 2.06.06 3.08.21.78.11 1.55.32 2.29.6v.18l-.26 3.23a8.32 8.32 0 0 0-2.17-.8c-.79-.18-1.6-.27-2.41-.27-1.75-.07-3.47.52-4.81 1.65a5.602 5.602 0 0 0-1.78 4.34zM264.85 78.12h-4.12V60.49h4.12v17.63zM280 73.06V60.49h3.87v17.63h-5l-.15-.28-6.42-12.19v12.47h-3.86V60.49h5.11L280 73.06zM299 78.12h-11.6V60.49h11.46v3h-7.33v4h6.79v3h-6.79V75H299v3.12z"/></g></g></svg>